<svg width="800" height="704" viewBox="0 0 800 704" fill="none" xmlns="http://www.w3.org/2000/svg">
<g clip-path="url(#clip0_1_144)">
<path d="M754.756 337.072C723.437 387.633 677.257 415.761 651.61 399.899C625.964 384.037 630.563 330.192 661.882 279.632C693.202 229.071 739.382 200.943 765.028 216.804C790.674 232.667 786.076 286.512 754.756 337.072Z" fill="#B8ECE8"/>
<path d="M751.76 425.334C715.853 448.313 677.295 452.199 665.639 434.014C653.984 415.828 673.643 382.458 709.55 359.479C745.457 336.5 784.015 332.614 795.67 350.799C807.327 368.984 787.668 402.355 751.76 425.334Z" fill="#B8ECE8"/>
<path d="M618.95 437.828C602.812 401.645 629.774 331.31 649.946 304.599L730.635 437.828C697.015 450.282 635.088 474.011 618.95 437.828Z" fill="#B8ECE8"/>
<path d="M44.2723 337.072C75.5918 387.633 121.771 415.761 147.418 399.899C173.065 384.037 168.465 330.192 137.146 279.632C105.826 229.071 59.6467 200.943 34.0003 216.804C8.35398 232.667 12.9529 286.512 44.2723 337.072Z" fill="#B8ECE8"/>
<path d="M47.2688 425.334C83.1759 448.313 121.734 452.199 133.389 434.014C145.045 415.828 125.385 382.458 89.4788 359.479C53.5716 336.5 15.0141 332.614 3.35817 350.799C-8.2978 368.984 11.3617 402.355 47.2688 425.334Z" fill="#B8ECE8"/>
<path d="M180.079 437.828C196.216 401.645 169.255 331.31 149.082 304.599L68.3933 437.828C102.013 450.282 163.941 474.011 180.079 437.828Z" fill="#B8ECE8"/>
<path fill-rule="evenodd" clip-rule="evenodd" d="M444.135 192.476C444.858 191.325 445.634 190.199 446.464 189.101C468.049 160.503 517.307 161.253 556.483 190.778C588.052 214.569 603.443 249.783 596.935 277.525C629.262 315.555 648.462 363.061 648.462 414.593C648.462 439.783 643.875 464.01 635.41 486.638C639.522 488.326 643.399 490.562 646.967 493.365C675.145 515.508 673.398 564.701 643.065 603.242C637.189 610.71 630.67 617.23 623.774 622.727C633.581 628.642 639.606 636.664 639.606 645.497C639.606 663.689 614.055 678.436 582.534 678.436C556.407 678.436 534.38 668.303 527.607 654.476C505.503 693.173 465.902 712.778 435.642 698.598C415.442 689.132 404.164 666.841 403.551 640.654C401.227 640.71 398.896 640.738 396.556 640.738C388.265 640.738 380.068 640.379 371.982 639.676C371.63 666.286 360.325 689.015 339.873 698.598C309.585 712.791 269.938 693.135 247.845 654.367C241.136 668.25 219.062 678.436 192.866 678.436C161.345 678.436 135.793 663.689 135.793 645.497C135.793 638.001 140.132 631.09 147.439 625.554C141.483 620.517 135.841 614.702 130.691 608.159C100.358 569.618 98.6116 520.424 126.79 498.282C135.677 491.298 146.482 487.84 158.06 487.587C149.366 464.687 144.649 440.135 144.649 414.593C144.649 367.335 160.797 323.461 188.409 287.179C176.673 258.541 191.843 218.795 226.41 192.745C265.586 163.22 314.844 162.47 336.429 191.067C337.256 192.162 338.029 193.283 338.75 194.431C357.313 190.518 376.665 188.448 396.556 188.448C412.822 188.448 428.727 189.832 444.135 192.476Z" fill="#FEE690"/>
<mask id="mask0_1_144" style="mask-type:alpha" maskUnits="userSpaceOnUse" x="106" y="168" width="562" height="536">
<path d="M444.135 192.476C444.858 191.325 445.634 190.199 446.464 189.101C468.049 160.503 517.307 161.253 556.483 190.778C588.052 214.569 603.443 249.783 596.935 277.525C629.262 315.555 648.462 363.061 648.462 414.593C648.462 439.783 643.875 464.01 635.41 486.638C639.522 488.326 643.399 490.562 646.967 493.365C675.145 515.508 673.398 564.701 643.065 603.242C637.189 610.71 630.67 617.23 623.774 622.727C633.581 628.642 639.606 636.664 639.606 645.497C639.606 663.689 614.055 678.436 582.534 678.436C556.407 678.436 534.38 668.303 527.607 654.476C505.503 693.173 465.902 712.778 435.642 698.598C415.442 689.132 404.164 666.841 403.551 640.654C401.227 640.71 398.896 640.738 396.556 640.738C388.265 640.738 380.068 640.379 371.982 639.676C371.63 666.286 360.325 689.015 339.873 698.598C309.585 712.791 269.938 693.135 247.845 654.367C241.136 668.25 219.062 678.436 192.866 678.436C161.345 678.436 135.793 663.689 135.793 645.497C135.793 638.001 140.132 631.09 147.439 625.554C141.483 620.517 135.841 614.702 130.691 608.159C100.358 569.618 98.6116 520.424 126.79 498.282C135.677 491.298 146.482 487.84 158.06 487.587C149.366 464.687 144.649 440.135 144.649 414.593C144.649 367.335 160.797 323.461 188.409 287.179C176.673 258.541 191.843 218.795 226.41 192.745C265.586 163.22 314.844 162.47 336.429 191.067C337.256 192.162 338.029 193.283 338.75 194.431C357.313 190.518 376.665 188.448 396.556 188.448C412.822 188.448 428.727 189.832 444.135 192.476Z" fill="#FDEEB8"/>
</mask>
<g mask="url(#mask0_1_144)">
<path d="M399.393 259.873C406.366 301.851 360.021 344.504 295.878 355.141C231.736 365.778 174.087 340.372 167.114 298.394C160.142 256.416 206.487 213.763 270.629 203.127C334.771 192.489 392.42 217.896 399.393 259.873Z" fill="#45BDA7"/>
<path d="M373.756 259.873C366.784 301.851 413.129 344.504 477.271 355.141C512.974 361.063 546.666 355.816 570.726 342.76C589.89 332.36 602.944 317.007 606.035 298.394C613.008 256.416 566.663 213.763 502.52 203.127C438.378 192.489 380.729 217.896 373.756 259.873Z" fill="#45BDA7"/>
<path d="M606.035 500.469C624.534 444.228 602.542 369.534 583.518 339.218L393.604 260.067L379.828 166.659C379.336 160.432 385.732 145.52 415.252 135.687C452.152 123.397 583.518 127.821 690.775 179.441C798.032 231.061 754.243 521.117 732.595 614.034C715.277 688.367 641.41 695.807 606.642 690.235C610.25 681.386 615.301 659.066 606.642 640.581C597.983 622.096 572.858 615.181 561.378 614.034C572.366 599.612 587.535 556.711 606.035 500.469Z" fill="#45BDA7"/>
<path d="M194.074 498.12C175.575 441.879 189.69 367.185 208.714 336.869L392.992 260.067L406.768 166.659C407.26 160.432 400.864 145.52 371.344 135.687C334.443 123.397 203.078 127.821 95.8208 179.441C-11.4363 231.061 32.3522 521.117 54.0004 614.034C71.3189 688.367 145.186 695.807 179.954 690.235C176.345 681.386 171.294 659.066 179.954 640.581C188.613 622.096 228.126 615.181 239.606 614.034C228.618 599.612 212.574 554.362 194.074 498.12Z" fill="#45BDA7"/>
<path d="M391.636 243.352C347.847 232.045 352.276 207.955 338.499 193.698L386.224 124.872C434.113 143.061 441.82 193.698 441.82 193.698C431.98 202.056 444.28 227.62 391.636 243.352Z" fill="#CB7293"/>
</g>
<mask id="mask1_1_144" style="mask-type:alpha" maskUnits="userSpaceOnUse" x="106" y="168" width="562" height="536">
<path d="M444.135 192.476C444.858 191.325 445.634 190.199 446.464 189.101C468.049 160.503 517.307 161.253 556.483 190.778C588.052 214.569 603.443 249.783 596.935 277.525C629.262 315.555 648.462 363.061 648.462 414.593C648.462 439.783 643.875 464.01 635.41 486.638C639.522 488.326 643.399 490.562 646.967 493.365C675.145 515.508 673.398 564.701 643.065 603.242C637.189 610.71 630.67 617.23 623.774 622.727C633.581 628.642 639.606 636.664 639.606 645.497C639.606 663.689 614.055 678.436 582.534 678.436C556.407 678.436 534.38 668.303 527.607 654.476C505.503 693.173 465.902 712.778 435.642 698.598C415.442 689.132 404.164 666.841 403.551 640.654C401.227 640.71 398.896 640.738 396.556 640.738C388.265 640.738 380.068 640.379 371.982 639.676C371.63 666.286 360.325 689.015 339.873 698.598C309.585 712.791 269.938 693.135 247.845 654.367C241.136 668.25 219.062 678.436 192.866 678.436C161.345 678.436 135.793 663.689 135.793 645.497C135.793 638.001 140.132 631.09 147.439 625.554C141.483 620.517 135.841 614.702 130.691 608.159C100.358 569.618 98.6116 520.424 126.79 498.282C135.677 491.298 146.482 487.84 158.06 487.587C149.366 464.687 144.649 440.135 144.649 414.593C144.649 367.335 160.797 323.461 188.409 287.179C176.673 258.541 191.843 218.795 226.41 192.745C265.586 163.22 314.844 162.47 336.429 191.067C337.256 192.162 338.029 193.283 338.75 194.431C357.313 190.518 376.665 188.448 396.556 188.448C412.822 188.448 428.727 189.832 444.135 192.476Z" fill="#FDEEB8"/>
</mask>
<g mask="url(#mask1_1_144)">
<path d="M399.393 259.873C406.366 301.851 360.021 344.504 295.878 355.141C231.736 365.778 174.087 340.372 167.114 298.394C160.142 256.416 206.487 213.763 270.629 203.127C334.771 192.489 392.42 217.896 399.393 259.873Z" fill="#45BDA7"/>
<path d="M373.756 259.873C366.784 301.851 413.129 344.504 477.271 355.141C512.974 361.063 546.666 355.816 570.726 342.76C589.89 332.36 602.944 317.007 606.035 298.394C613.008 256.416 566.663 213.763 502.52 203.127C438.378 192.489 380.729 217.896 373.756 259.873Z" fill="#45BDA7"/>
<path d="M606.035 500.469C624.534 444.228 602.542 369.534 583.518 339.218L393.604 260.067L379.828 166.659C379.336 160.432 385.732 145.52 415.252 135.687C452.152 123.397 583.518 127.821 690.775 179.441C798.032 231.061 754.243 521.117 732.595 614.034C715.277 688.367 641.41 695.807 606.642 690.235C610.25 681.386 615.301 659.066 606.642 640.581C597.983 622.096 572.858 615.181 561.378 614.034C572.366 599.612 587.535 556.711 606.035 500.469Z" fill="#45BDA7"/>
<path d="M194.074 498.12C175.575 441.879 189.69 367.185 208.714 336.869L392.992 260.067L406.768 166.659C407.26 160.432 400.864 145.52 371.344 135.687C334.443 123.397 203.078 127.821 95.8208 179.441C-11.4363 231.061 32.3522 521.117 54.0004 614.034C71.3189 688.367 145.186 695.807 179.954 690.235C176.345 681.386 171.294 659.066 179.954 640.581C188.613 622.096 228.126 615.181 239.606 614.034C228.618 599.612 212.574 554.362 194.074 498.12Z" fill="#45BDA7"/>
<path d="M391.636 243.352C347.847 232.045 352.276 207.955 338.499 193.698L386.224 124.872C434.113 143.061 441.82 193.698 441.82 193.698C431.98 202.056 444.28 227.62 391.636 243.352Z" fill="#CB7293"/>
</g>
<mask id="mask2_1_144" style="mask-type:alpha" maskUnits="userSpaceOnUse" x="106" y="168" width="562" height="536">
<path d="M444.135 192.476C444.858 191.325 445.634 190.199 446.464 189.101C468.049 160.503 517.307 161.253 556.483 190.778C588.052 214.569 603.443 249.783 596.935 277.525C629.262 315.555 648.462 363.061 648.462 414.593C648.462 439.783 643.875 464.01 635.41 486.638C639.522 488.326 643.399 490.562 646.967 493.365C675.145 515.508 673.398 564.701 643.065 603.242C637.189 610.71 630.67 617.23 623.774 622.727C633.581 628.642 639.606 636.664 639.606 645.497C639.606 663.689 614.055 678.436 582.534 678.436C556.407 678.436 534.38 668.303 527.607 654.476C505.503 693.173 465.902 712.778 435.642 698.598C415.442 689.132 404.164 666.841 403.551 640.654C401.227 640.71 398.896 640.738 396.556 640.738C388.265 640.738 380.068 640.379 371.982 639.676C371.63 666.286 360.325 689.015 339.873 698.598C309.585 712.791 269.938 693.135 247.845 654.367C241.136 668.25 219.062 678.436 192.866 678.436C161.345 678.436 135.793 663.689 135.793 645.497C135.793 638.001 140.132 631.09 147.439 625.554C141.483 620.517 135.841 614.702 130.691 608.159C100.358 569.618 98.6116 520.424 126.79 498.282C135.677 491.298 146.482 487.84 158.06 487.587C149.366 464.687 144.649 440.135 144.649 414.593C144.649 367.335 160.797 323.461 188.409 287.179C176.673 258.541 191.843 218.795 226.41 192.745C265.586 163.22 314.844 162.47 336.429 191.067C337.256 192.162 338.029 193.283 338.75 194.431C357.313 190.518 376.665 188.448 396.556 188.448C412.822 188.448 428.727 189.832 444.135 192.476Z" fill="#CCB564"/>
</mask>
<g mask="url(#mask2_1_144)">
<path d="M399.393 259.873C406.366 301.851 360.021 344.504 295.878 355.141C231.736 365.778 174.087 340.372 167.114 298.394C160.142 256.416 206.487 213.763 270.629 203.127C334.771 192.489 392.42 217.896 399.393 259.873Z" fill="#45BDA7"/>
<path d="M373.756 259.873C366.784 301.851 413.129 344.504 477.271 355.141C512.974 361.063 546.666 355.816 570.726 342.76C589.89 332.36 602.944 317.007 606.035 298.394C613.008 256.416 566.663 213.763 502.52 203.127C438.378 192.489 380.729 217.896 373.756 259.873Z" fill="#45BDA7"/>
<path d="M606.035 500.469C624.534 444.228 602.542 369.534 583.518 339.218L393.604 260.067L379.828 166.659C379.336 160.432 385.732 145.52 415.252 135.687C452.152 123.397 583.518 127.821 690.775 179.441C798.032 231.061 754.243 521.117 732.595 614.034C715.277 688.367 641.41 695.807 606.642 690.235C610.25 681.386 615.301 659.066 606.642 640.581C597.983 622.096 572.858 615.181 561.378 614.034C572.366 599.612 587.535 556.711 606.035 500.469Z" fill="#45BDA7"/>
<path d="M194.074 498.12C175.575 441.879 189.69 367.185 208.714 336.869L392.992 260.067L406.768 166.659C407.26 160.432 400.864 145.52 371.344 135.687C334.443 123.397 203.078 127.821 95.8208 179.441C-11.4363 231.061 32.3522 521.117 54.0004 614.034C71.3189 688.367 145.186 695.807 179.954 690.235C176.345 681.386 171.294 659.066 179.954 640.581C188.613 622.096 228.126 615.181 239.606 614.034C228.618 599.612 212.574 554.362 194.074 498.12Z" fill="#45BDA7"/>
<path d="M391.636 243.352C347.847 232.045 352.276 207.955 338.499 193.698L386.224 124.872C434.113 143.061 441.82 193.698 441.82 193.698C431.98 202.056 444.28 227.62 391.636 243.352Z" fill="#CB7293"/>
</g>
<path d="M251.075 254.395C260.399 262.301 275.653 259.647 285.147 248.468C294.641 237.289 294.779 221.817 285.456 213.912C276.133 206.007 260.878 208.661 251.384 219.84C241.891 231.019 241.752 246.49 251.075 254.395Z" fill="#1B7975"/>
<path d="M526.538 248.496C517.215 256.401 501.961 253.747 492.467 242.568C482.973 231.389 482.835 215.918 492.158 208.012C501.481 200.107 516.735 202.761 526.229 213.94C535.723 225.119 535.862 240.59 526.538 248.496Z" fill="#1B7975"/>
<path d="M421.133 285.411C426.554 283.632 431.774 284.7 432.791 287.795C433.808 290.891 430.238 294.842 424.817 296.621C419.395 298.4 414.175 297.333 413.158 294.237C412.141 291.142 415.711 287.19 421.133 285.411Z" fill="#CB7293"/>
<path d="M421.133 285.411C426.554 283.632 431.774 284.7 432.791 287.795C433.808 290.891 430.238 294.842 424.817 296.621C419.395 298.4 414.175 297.333 413.158 294.237C412.141 291.142 415.711 287.19 421.133 285.411Z" fill="#CB7293"/>
<path d="M421.133 285.411C426.554 283.632 431.774 284.7 432.791 287.795C433.808 290.891 430.238 294.842 424.817 296.621C419.395 298.4 414.175 297.333 413.158 294.237C412.141 291.142 415.711 287.19 421.133 285.411Z" fill="#CB7293"/>
<path d="M421.133 285.411C426.554 283.632 431.774 284.7 432.791 287.795C433.808 290.891 430.238 294.842 424.817 296.621C419.395 298.4 414.175 297.333 413.158 294.237C412.141 291.142 415.711 287.19 421.133 285.411Z" fill="#CB7293"/>
<path d="M350.032 285.41C344.61 283.632 339.391 284.699 338.373 287.795C337.356 290.89 340.926 294.842 346.348 296.62C351.769 298.399 356.989 297.332 358.006 294.236C359.024 291.141 355.453 287.189 350.032 285.41Z" fill="#CB7293"/>
<path d="M350.032 285.41C344.61 283.632 339.391 284.699 338.373 287.795C337.356 290.89 340.926 294.842 346.348 296.62C351.769 298.399 356.989 297.332 358.006 294.236C359.024 291.141 355.453 287.189 350.032 285.41Z" fill="#CB7293"/>
<path d="M350.032 285.41C344.61 283.632 339.391 284.699 338.373 287.795C337.356 290.89 340.926 294.842 346.348 296.62C351.769 298.399 356.989 297.332 358.006 294.236C359.024 291.141 355.453 287.189 350.032 285.41Z" fill="#CB7293"/>
<path d="M350.032 285.41C344.61 283.632 339.391 284.699 338.373 287.795C337.356 290.89 340.926 294.842 346.348 296.62C351.769 298.399 356.989 297.332 358.006 294.236C359.024 291.141 355.453 287.189 350.032 285.41Z" fill="#CB7293"/>
<path d="M497.813 32.3307C499.651 31.8411 500.743 29.9553 500.253 28.1189C499.763 26.2825 497.876 25.1907 496.037 25.6805L497.813 32.3307ZM414.224 192.655C413.514 188.292 413.48 180.39 414.299 170.266C415.11 160.226 416.738 148.251 419.232 135.862C424.25 110.927 432.658 84.9167 444.551 69.4486L439.09 65.2553C426.186 82.0375 417.538 109.368 412.478 134.504C409.933 147.151 408.267 159.394 407.433 169.711C406.606 179.943 406.575 188.534 407.424 193.758L414.224 192.655ZM444.551 69.4486C456.699 53.6507 467.665 45.0506 476.65 40.0787C485.649 35.0986 492.771 33.6742 497.813 32.3307L496.037 25.6805C491.239 26.959 483.207 28.5826 473.313 34.0577C463.405 39.5409 451.739 48.8029 439.09 65.2553L444.551 69.4486Z" fill="#CB7293"/>
<path d="M481.673 14.2569C494.944 5.92144 498.574 20.1289 504.305 22.1228C506.147 31.787 515.457 54.5169 504.305 50.6369C493.153 46.7568 463.469 46.2123 444.28 64.8939C446.478 59.585 464.453 25.0727 481.673 14.2569Z" fill="#CB7293"/>
<path d="M518.744 49.32C538.098 43.8709 550.8 28.8607 547.116 15.7938C543.431 2.72687 524.754 -3.44855 505.4 2.00059C486.046 7.44973 473.343 22.4599 477.028 35.5268C480.713 48.5938 499.39 54.7692 518.744 49.32Z" fill="#45BDA7"/>
<path d="M265.671 41.5954C263.791 41.3081 262.5 39.552 262.788 37.6733C263.075 35.7946 264.832 34.5045 266.713 34.7919L265.671 41.5954ZM366.19 191.901C366.421 187.487 365.596 179.628 363.682 169.652C361.785 159.76 358.865 148.033 355.04 135.987C347.341 111.744 336.155 86.8001 322.651 72.7141L327.625 67.953C342.277 83.2357 353.844 109.466 361.605 133.906C365.509 146.201 368.497 158.191 370.447 168.356C372.382 178.436 373.345 186.975 373.069 192.26L366.19 191.901ZM322.651 72.7141C308.859 58.3279 297.022 50.9687 287.55 47.0011C278.063 43.0271 270.829 42.3838 265.671 41.5954L266.713 34.7919C271.621 35.5422 279.783 36.2845 290.213 40.6536C300.659 45.0292 313.261 52.9706 327.625 67.953L322.651 72.7141Z" fill="#CB7293"/>
<path d="M279.751 21.8771C265.652 15.0311 263.588 29.5484 258.108 32.1524C257.326 41.9593 250.543 65.565 261.206 60.4979C271.87 55.4307 301.321 51.6681 322.426 68.1569C319.664 63.118 298.045 30.7603 279.751 21.8771Z" fill="#CB7293"/>
<path d="M246.71 60.7556C226.878 57.4389 212.619 43.8959 214.862 30.5064C217.105 17.1169 235 8.95137 254.832 12.2681C274.664 15.5848 288.922 29.1278 286.68 42.5173C284.437 55.9068 266.542 64.0723 246.71 60.7556Z" fill="#45BDA7"/>
</g>
<defs>
<clipPath id="clip0_1_144">
<rect width="800" height="704" fill="white"/>
</clipPath>
</defs>
</svg>
